<?xml version="1.0" encoding="utf-8"?>
<!-- Generator: Adobe Illustrator 22.1.0, SVG Export Plug-In . SVG Version: 6.00 Build 0)  -->
<svg version="1.1" id="Layer_1" xmlns="http://www.w3.org/2000/svg" xmlns:xlink="http://www.w3.org/1999/xlink" x="0px" y="0px" width="144px" height="17px" viewBox="100 100 85 30" xml:space="preserve">
<style type="text/css">
	.st0{fill:#FFFFFF;}
	.st1{fill:#FFFFFF;}
</style>
<g>
	<g>
		<path class="st0" d="M70.1,128.6l-13.3-18.2v18.2h-5.9v-27.9h6.1l12.9,17.5v-17.5h5.9v27.9H70.1z"/>
		<path class="st0" d="M80,128.6v-27.9h19.7v5.2H85.9v5.9h13.5v5.2H85.9v6.3h13.8v5.2H80z"/>
	</g>
	<g>
		<path class="st0" d="M133.2,128.6l-13.3-18.2v18.2h-5.9v-27.9h6.1l12.9,17.5v-17.5h5.9v27.9H133.2z"/>
		<path class="st0" d="M190.1,128.6l-5.5-9.9h-4.4v9.9h-5.9v-27.9h13.1c5.8,0,9.4,3.8,9.4,9c0,4.9-3.1,7.6-6.1,8.3l6.3,10.6H190.1z
			 M190.6,109.7c0-2.3-1.8-3.8-4.2-3.8h-6.2v7.5h6.2C188.8,113.4,190.6,112,190.6,109.7z"/>
		<path class="st0" d="M207.6,128.6v-22.7h-8.2v-5.2h22.3v5.2h-8.1v22.7H207.6z"/>
		<path class="st0" d="M244.2,128.6v-11.7H231v11.7h-5.9v-27.9h5.9v11h13.2v-11h6v27.9H244.2z"/>
	</g>
	<g>
		<path class="st0" d="M156.8,100.2c-8,0-14.4,6.5-14.4,14.4c0,8,6.5,14.4,14.4,14.4c8,0,14.4-6.5,14.4-14.4
			C171.2,106.7,164.7,100.2,156.8,100.2z M156.8,123.6c-4.9,0-8.9-4-8.9-8.9c0-4.9,4-8.9,8.9-8.9c4.9,0,8.9,4,8.9,8.9
			C165.7,119.6,161.7,123.6,156.8,123.6z"/>
	</g>
	<g>
		<g>
			<path class="st1" d="M34.8,100.3v5.6c4,0.9,7,4.4,7,8.7c0,4.9-4,8.9-8.9,8.9s-8.9-4-8.9-8.9c0-4.3,3-7.9,7-8.7v-5.6
				c-7.1,0.9-12.6,7-12.6,14.3c0,8,6.5,14.4,14.4,14.4c8,0,14.4-6.5,14.4-14.4C47.4,107.3,41.9,101.3,34.8,100.3z"/>
		</g>
	</g>
</g>
</svg>
